<svg width="320" height="226" viewBox="0 0 320 226" xmlns="http://www.w3.org/2000/svg" xmlns:xlink="http://www.w3.org/1999/xlink"><title>API Program Card Graphic</title><defs><path id="a" d="M0 0h320v226H0z"/><filter x="-3.2%" y="-2.8%" width="106.5%" height="106.5%" filterUnits="objectBoundingBox" id="b"><feOffset dy="2" in="SourceAlpha" result="shadowOffsetOuter1"/><feGaussianBlur stdDeviation="4" in="shadowOffsetOuter1" result="shadowBlurOuter1"/><feColorMatrix values="0 0 0 0 0 0 0 0 0 0 0 0 0 0 0 0 0 0 0.05 0" in="shadowBlurOuter1" result="shadowMatrixOuter1"/><feMerge><feMergeNode in="shadowMatrixOuter1"/><feMergeNode in="SourceGraphic"/></feMerge></filter><linearGradient x1="48.438%" y1="65.625%" x2="0%" y2="30.311%" id="e"><stop stop-opacity="0" offset="0%"/><stop offset="100%"/></linearGradient><path id="d" d="M0 0h400v400H0z"/><filter x="-88%" y="-53.1%" width="266.7%" height="211.2%" filterUnits="objectBoundingBox" id="g"><feOffset dx="-2" dy="2" in="SourceAlpha" result="shadowOffsetOuter1"/><feGaussianBlur stdDeviation="14.5" in="shadowOffsetOuter1" result="shadowBlurOuter1"/><feColorMatrix values="0 0 0 0 0 0 0 0 0 0 0 0 0 0 0 0 0 0 0.2 0" in="shadowBlurOuter1" result="shadowMatrixOuter1"/><feMerge><feMergeNode in="shadowMatrixOuter1"/><feMergeNode in="SourceGraphic"/></feMerge></filter><path d="M2 0h49.6A2.4 2.4 0 0 1 54 2.4v74.954a2.4 2.4 0 0 1-2.4 2.4H2.4a2.4 2.4 0 0 1-2.4-2.4V2a2 2 0 0 1 2-2z" id="h"/><path d="M2.4 0h57.2A2.4 2.4 0 0 1 62 2.4v38.47a1 1 0 0 1-1 1H1a1 1 0 0 1-1-1V2.4A2.4 2.4 0 0 1 2.4 0z" id="i"/><path d="M1 0h60a1 1 0 0 1 1 1v6.975H0V1a1 1 0 0 1 1-1z" id="j"/><rect id="k" x="6.889" y="12.96" width="47.238" height="6.978" rx="1.2"/><rect id="l" x="6.889" y="21.932" width="31.492" height="11.963" rx="1.2"/><rect id="m" x="41.333" y="21.932" width="12.794" height="11.963" rx="1.2"/><filter x="-185.2%" y="-86%" width="455.6%" height="290%" filterUnits="objectBoundingBox" id="n"><feOffset dx="-2" dy="5" in="SourceAlpha" result="shadowOffsetOuter1"/><feGaussianBlur stdDeviation="14.5" in="shadowOffsetOuter1" result="shadowBlurOuter1"/><feColorMatrix values="0 0 0 0 0 0 0 0 0 0 0 0 0 0 0 0 0 0 0.2 0" in="shadowBlurOuter1" result="shadowMatrixOuter1"/><feMerge><feMergeNode in="shadowMatrixOuter1"/><feMergeNode in="SourceGraphic"/></feMerge></filter><rect id="o" width="25" height="38" rx="1.2"/><path d="M1.2 0h22.6A1.2 1.2 0 0 1 25 1.2v4.5H0V1.2A1.2 1.2 0 0 1 1.2 0z" id="p"/><rect id="q" x="2.885" y="7.6" width="19.231" height="9.5" rx="1.2"/><rect id="r" x="2.885" y="19" width="19.231" height="5.7" rx="1.2"/><rect id="s" x="2.885" y="26.6" width="19.231" height="5.7" rx="1.2"/><path d="M0 27.995V12.248m64 0v15.747c0 6.626-14.327 11.998-32 11.998-17.673 0-32-5.372-32-11.998V12.248" id="t"/><path d="M32 23.996c17.673 0 32-5.372 32-11.998C64 5.372 49.673 0 32 0 14.327 0 0 5.372 0 11.998c0 6.626 14.327 11.998 32 11.998z" id="u"/><path d="M0 27.995V12.248m64 0v15.747c0 6.626-14.327 11.998-32 11.998-17.673 0-32-5.372-32-11.998V12.248" id="v"/><path d="M32 23.996c17.673 0 32-5.372 32-11.998C64 5.372 49.673 0 32 0 14.327 0 0 5.372 0 11.998c0 6.626 14.327 11.998 32 11.998z" id="w"/><path d="M0 27.995V12.248m64 0v15.747c0 6.626-14.327 11.998-32 11.998-17.673 0-32-5.372-32-11.998V12.248" id="x"/><path d="M32 23.996c17.673 0 32-5.372 32-11.998C64 5.372 49.673 0 32 0 14.327 0 0 5.372 0 11.998c0 6.626 14.327 11.998 32 11.998z" id="y"/></defs><g fill="none" fill-rule="evenodd"><mask id="c" fill="#fff"><use xlink:href="#a"/></mask><use fill="#FFF" xlink:href="#a"/><g filter="url(#b)" mask="url(#c)"><g transform="translate(0 -1)"><mask id="f" fill="#fff"><use xlink:href="#d"/></mask><use fill="#3320BD" xlink:href="#d"/><use fill-opacity=".2" fill="url(#e)" xlink:href="#d"/><path d="M218.104 19.522c2.869-7.503 1.279-16.321-4.769-22.369-8.204-8.204-21.506-8.204-29.71 0L46.957 133.821c-8.204 8.204-8.204 21.506 0 29.71 7.577 7.577 19.5 8.157 27.743 1.74a21.057 21.057 0 0 0 1.35 17.888l-38.897 38.897c-8.204 8.205-8.204 21.506 0 29.71 8.205 8.205 21.506 8.205 29.71 0L203.532 115.1c6.837-6.837 7.977-17.214 3.419-25.23l38.897-38.897c8.204-8.205 8.204-21.506 0-29.71-7.577-7.577-19.5-8.157-27.743-1.74z" fill="#20109A" mask="url(#f)"/><path d="M307.269 4.376c2.256-5.903 1.006-12.84-3.752-17.599-6.455-6.454-16.92-6.454-23.375 0L172.618 94.301c-6.455 6.455-6.455 16.92 0 23.375 5.961 5.96 15.342 6.417 21.827 1.368a16.57 16.57 0 0 0 1.062 14.074l-30.602 30.602c-6.455 6.455-6.455 16.92 0 23.375 6.455 6.455 16.92 6.455 23.375 0L295.803 79.571c5.38-5.379 6.276-13.542 2.69-19.85l30.602-30.602c6.455-6.455 6.455-16.92 0-23.375-5.96-5.96-15.342-6.417-21.826-1.368z" fill="#20109A" mask="url(#f)" transform="scale(-1 1) rotate(-90 0 333.936)"/><g mask="url(#f)"><g transform="translate(-128 118)"><g stroke="#4B35EF"><path d="M20.06 38.423l-8.024 4.39 64.189 3.843L52.822 69.71l69.539 39.52 15.379-31.287V49.401L113 23.603 55.497 29.64zm403.857 131.186l-131.722-31.287 64.858-75.199-72.213 12.625 18.722 18.113"/><path d="M303.562 93.861l-11.367 43.912-82.911-69.71L312.924 24.7l-28.752 51.597z"/><path d="M302.893 94.41l-93.609-26.896-49.48 47.205-21.396-36.776-15.378 30.738 36.775 6.038"/><path d="M161.142 114.17l54.16-15.369-6.018-30.738 82.911 69.71"/><path d="M215.302 98.252L263.444 174l28.751-36.227-82.911-70.259z"/><path d="M0 13.174l12.704 28.542 39.45 29.092 84.248 7.684 73.55-10.978 73.551 8.783 74.888-13.174 67.532 64.22L452 82.335l-86.923-28.542-54.16-30.738L226 6.038l-57.503 17.016-32.095 27.993-73.55 6.038L20.06 38.423 0 13.173z"/><path d="M75.556 46.656l39.45-21.956 52.154-2.744 42.124 45.01 18.053-60.38 56.835 69.71L312.923 24.7l44.799 38.972 8.024-9.88 59.508 72.454v43.912l-18.053-38.423-49.48-68.063"/></g><ellipse fill="#4B35EF" cx="366.414" cy="53.243" rx="3.343" ry="2.744"/><ellipse fill="#4B35EF" cx="304.231" cy="93.861" rx="3.343" ry="2.744"/><ellipse fill="#4B35EF" cx="284.84" cy="75.748" rx="3.343" ry="2.744"/><ellipse fill="#4B35EF" cx="228.006" cy="6.038" rx="3.343" ry="2.744"/><ellipse fill="#4B35EF" cx="137.74" cy="50.498" rx="3.343" ry="2.744"/><ellipse fill="#4B35EF" cx="137.74" cy="78.492" rx="3.343" ry="2.744"/><ellipse fill="#4B35EF" cx="209.953" cy="68.063" rx="3.343" ry="2.744"/></g></g><g mask="url(#f)"><g transform="translate(57 63)"><ellipse stroke="#FFA000" stroke-width="3" stroke-linecap="round" stroke-linejoin="round" stroke-dasharray="1,6" cx="96" cy="71.5" rx="79" ry="28.5"/><g filter="url(#g)" transform="rotate(90 94.5 94.5)"><use fill="#4B35EF" xlink:href="#h"/><path stroke="#9F96EA" stroke-width="2" d="M2 1a1 1 0 0 0-1 1v75.354a1.4 1.4 0 0 0 1.4 1.4h49.2a1.4 1.4 0 0 0 1.4-1.4V2.4A1.4 1.4 0 0 0 51.6 1H2z"/><g transform="rotate(-90 38.803 32.738)"><use fill="#FFF" xlink:href="#i"/><path stroke="#393084" stroke-width="1.2" d="M2.4.6A1.8 1.8 0 0 0 .6 2.4v38.47c0 .222.18.4.4.4h60a.4.4 0 0 0 .4-.4V2.4A1.8 1.8 0 0 0 59.6.6H2.4z"/><use fill="#71CEF9" xlink:href="#j"/><path stroke="#393084" stroke-width="1.2" d="M.6 7.375h60.8V1a.4.4 0 0 0-.4-.4H1a.4.4 0 0 0-.4.4v6.375z"/><use fill="#D8D8D8" xlink:href="#k"/><rect stroke="#BEBFC1" stroke-width="1.2" x="7.489" y="13.56" width="46.038" height="5.778" rx="1.2"/><use fill="#D8D8D8" xlink:href="#l"/><rect stroke="#BEBFC1" stroke-width="1.2" x="7.489" y="22.532" width="30.292" height="10.763" rx="1.2"/><use fill="#D8D8D8" xlink:href="#m"/><rect stroke="#BEBFC1" stroke-width="1.2" x="41.933" y="22.532" width="11.594" height="10.763" rx="1.2"/><circle fill="#311B92" cx="3.937" cy="3.988" r="1.2"/><circle fill="#311B92" cx="6.889" cy="3.988" r="1.2"/></g><ellipse fill="#7F73E3" cx="27" cy="5.815" rx="2" ry="1.994"/></g><g filter="url(#n)" transform="translate(168 15)"><g stroke="#9F96EA"><rect stroke-width="2" fill="#4B35EF" width="27" height="50" rx="2.4"/><rect stroke-width="1.2" x="11.207" y="45.792" width="4.586" height="1" rx=".5"/></g><g transform="translate(1 5)"><use fill="#FFF" xlink:href="#o"/><rect stroke="#393084" stroke-width="1.2" x=".6" y=".6" width="23.8" height="36.8" rx="1.2"/><use fill="#71CEF9" xlink:href="#p"/><path stroke="#393084" stroke-width="1.2" d="M.6 5.1h23.8V1.2a.6.6 0 0 0-.6-.6H1.2a.6.6 0 0 0-.6.6v3.9z"/><use fill="#D8D8D8" xlink:href="#q"/><rect stroke="#BEBFC1" stroke-width="1.2" x="3.485" y="8.2" width="18.031" height="8.3" rx="1.2"/><use fill="#D8D8D8" xlink:href="#r"/><rect stroke="#BEBFC1" stroke-width="1.2" x="3.485" y="19.6" width="18.031" height="4.5" rx="1.2"/><use fill="#D8D8D8" xlink:href="#s"/><rect stroke="#BEBFC1" stroke-width="1.2" x="3.485" y="27.2" width="18.031" height="4.5" rx="1.2"/><circle fill="#311B92" cx="3.846" cy="2.85" r="1.2"/><circle fill="#311B92" cx="6.731" cy="2.85" r="1.2"/></g></g><g transform="translate(0 57)"><use fill="#ECEAEA" xlink:href="#t"/><path stroke="#F1F2F3" stroke-width="2" d="M63 13.248H1v14.747c0 5.807 13.846 10.998 31 10.998s31-5.191 31-10.998V13.248z"/></g><g transform="translate(0 57)"><use fill="#077FB6" xlink:href="#u"/><path stroke="#F1F2F3" stroke-width=".972" d="M32 23.51c17.42 0 31.514-5.284 31.514-11.512C63.514 5.77 49.421.486 32 .486 14.58.486.486 5.77.486 11.998.486 18.226 14.579 23.51 32 23.51z"/></g><g transform="translate(0 36)"><use fill="#ECEAEA" xlink:href="#v"/><path stroke="#F1F2F3" stroke-width="2" d="M63 13.248H1v14.747c0 5.807 13.846 10.998 31 10.998s31-5.191 31-10.998V13.248z"/></g><g transform="translate(0 36)"><use fill="#077FB6" xlink:href="#w"/><path stroke="#F1F2F3" stroke-width=".972" d="M32 23.51c17.42 0 31.514-5.284 31.514-11.512C63.514 5.77 49.421.486 32 .486 14.58.486.486 5.77.486 11.998.486 18.226 14.579 23.51 32 23.51z"/></g><g transform="translate(0 15)"><use fill="#ECEAEA" xlink:href="#x"/><path stroke="#F1F2F3" stroke-width="2" d="M63 13.248H1v14.747c0 5.807 13.846 10.998 31 10.998s31-5.191 31-10.998V13.248z"/></g><g transform="translate(0 15)"><use fill="#1DAFF6" xlink:href="#y"/><path stroke="#F1F2F3" stroke-width="2" d="M32 22.996c17.154 0 31-5.192 31-10.998C63 6.192 49.154 1 32 1S1 6.192 1 11.998c0 5.806 13.846 10.998 31 10.998z"/></g></g></g></g></g></g></svg>