<svg width="320" height="200" xmlns="http://www.w3.org/2000/svg" xmlns:xlink="http://www.w3.org/1999/xlink"><defs><path id="a" d="M0 0h320v200H0z"/><linearGradient x1="31.118%" y1="40.719%" x2="-6.043%" y2="17.664%" id="d"><stop stop-opacity="0" offset="0%"/><stop offset="100%"/></linearGradient><path id="c" d="M17 0h320v320H17z"/><rect id="f" y="6" width="226" height="170" rx=".4"/><filter x="-1.3%" y="-1.8%" width="102.7%" height="103.5%" filterUnits="objectBoundingBox" id="e"><feOffset dy="2" in="SourceAlpha" result="shadowOffsetOuter1"/><feGaussianBlur stdDeviation="2" in="shadowOffsetOuter1" result="shadowBlurOuter1"/><feColorMatrix values="0 0 0 0 0 0 0 0 0 0 0 0 0 0 0 0 0 0 0.5 0" in="shadowBlurOuter1"/></filter><path id="h" d="M59.5 92.5h115v154h-115z"/><filter x="-6.1%" y="-3.2%" width="112.2%" height="109.1%" filterUnits="objectBoundingBox" id="g"><feOffset dy="2" in="SourceAlpha" result="shadowOffsetOuter1"/><feGaussianBlur stdDeviation="2" in="shadowOffsetOuter1" result="shadowBlurOuter1"/><feColorMatrix values="0 0 0 0 0 0 0 0 0 0 0 0 0 0 0 0 0 0 0.2 0" in="shadowBlurOuter1"/></filter><path id="j" d="M153.937 116.063h50.127v90h-50.127z"/><filter x="-14%" y="-5.6%" width="127.9%" height="115.6%" filterUnits="objectBoundingBox" id="i"><feOffset dy="2" in="SourceAlpha" result="shadowOffsetOuter1"/><feGaussianBlur stdDeviation="2" in="shadowOffsetOuter1" result="shadowBlurOuter1"/><feColorMatrix values="0 0 0 0 0 0 0 0 0 0 0 0 0 0 0 0 0 0 0.2 0" in="shadowBlurOuter1"/></filter><path id="l" d="M98 46h50.127v90H98z"/><filter x="-14%" y="-5.6%" width="127.9%" height="115.6%" filterUnits="objectBoundingBox" id="k"><feOffset dy="2" in="SourceAlpha" result="shadowOffsetOuter1"/><feGaussianBlur stdDeviation="2" in="shadowOffsetOuter1" result="shadowBlurOuter1"/><feColorMatrix values="0 0 0 0 0 0 0 0 0 0 0 0 0 0 0 0 0 0 0.2 0" in="shadowBlurOuter1"/></filter></defs><g fill="none" fill-rule="evenodd"><mask id="b" fill="#fff"><use xlink:href="#a"/></mask><use fill="#FFF" xlink:href="#a"/><g mask="url(#b)"><g transform="translate(-17 -15)"><use fill="#3320BD" xlink:href="#c"/><use fill-opacity=".2" fill="url(#d)" xlink:href="#c"/><rect fill="#23208E" transform="rotate(90 250.463 203)" x="75.463" y="71.537" width="350" height="262.927" rx=".4"/><g transform="rotate(90 117 169.5)"><use fill="#000" filter="url(#g)" xlink:href="#h"/><use fill="#21119C" xlink:href="#h"/></g><g transform="rotate(-90 179 161.063)"><use fill="#000" filter="url(#i)" xlink:href="#j"/><use fill="#3C2BBA" xlink:href="#j"/></g><g transform="rotate(-180 123.063 91)"><use fill="#000" filter="url(#k)" xlink:href="#l"/><use fill="#3927C6" xlink:href="#l"/></g></g></g></g></svg>