<svg width="1440" height="4925" viewBox="0 0 1440 4925" xmlns="http://www.w3.org/2000/svg" xmlns:xlink="http://www.w3.org/1999/xlink"><title>Background</title><defs><path id="a" d="M0 0h1440v4925H0z"/><linearGradient x1="50%" y1="16.98%" x2="50%" y2="73.799%" id="c"><stop stop-color="#20109A" offset="0%"/><stop stop-color="#4B35EF" offset="100%"/></linearGradient><path d="M988.898 1091.035c25.93-17.133 61.175-14.284 84.006 8.547 26.085 26.085 26.085 68.379 0 94.465l-176.757 176.756c-17.19 25.936-14.36 61.23 8.495 84.085 22.12 22.12 55.897 25.483 81.56 10.086 26.138-25.398 67.915-25.17 93.77.686 26.086 26.086 26.086 68.38 0 94.465L528.03 2112.068c-26.085 26.086-68.379 26.086-94.465 0-26.085-26.086-26.085-68.38 0-94.465l135.469-135.468c-26.242 22.753-66 21.659-90.942-3.283-21.079-21.078-25.125-52.74-12.137-77.882l250.7-250.7c26.085-26.086 26.085-68.379 0-94.465-25.708-25.708-67.158-26.08-93.322-1.117l4.612-4.612c-25.929 17.133-61.175 14.284-84.005-8.547-26.086-26.086-26.086-68.379 0-94.465l434.5-434.5c26.085-26.085 68.379-26.085 94.465 0 26.085 26.086 26.085 68.38 0 94.465l-84.006 84.006z" id="e"/><filter x="-8.2%" y="-3.2%" width="116.3%" height="109%" filterUnits="objectBoundingBox" id="d"><feOffset dy="16" in="SourceAlpha" result="shadowOffsetOuter1"/><feGaussianBlur stdDeviation="16" in="shadowOffsetOuter1" result="shadowBlurOuter1"/><feColorMatrix values="0 0 0 0 0 0 0 0 0 0 0 0 0 0 0 0 0 0 0.1 0" in="shadowBlurOuter1"/></filter><path d="M1005.898 198.035c25.93-17.133 61.175-14.284 84.006 8.547 26.085 26.085 26.085 68.379 0 94.465L913.147 477.803c-17.19 25.936-14.36 61.23 8.495 84.085 22.12 22.12 55.897 25.483 81.56 10.086 26.138-25.398 67.915-25.17 93.77.686 26.086 26.086 26.086 68.38 0 94.465L545.03 1219.068c-26.085 26.086-68.379 26.086-94.465 0-26.085-26.086-26.085-68.38 0-94.465l135.469-135.468c-26.242 22.753-66 21.659-90.942-3.283-21.079-21.078-25.125-52.74-12.137-77.882l250.7-250.7c26.085-26.086 26.085-68.379 0-94.465-25.708-25.708-67.158-26.08-93.322-1.117l4.612-4.612c-25.929 17.133-61.175 14.284-84.005-8.547-26.086-26.086-26.086-68.379 0-94.465l434.5-434.5c26.085-26.085 68.379-26.085 94.465 0 26.085 26.086 26.085 68.38 0 94.465l-84.006 84.006z" id="g"/><filter x="-8.2%" y="-3.2%" width="116.3%" height="109%" filterUnits="objectBoundingBox" id="f"><feOffset dy="16" in="SourceAlpha" result="shadowOffsetOuter1"/><feGaussianBlur stdDeviation="16" in="shadowOffsetOuter1" result="shadowBlurOuter1"/><feColorMatrix values="0 0 0 0 0 0 0 0 0 0 0 0 0 0 0 0 0 0 0.1 0" in="shadowBlurOuter1"/></filter><path d="M241.543 1171.844c-20.37 30.782-16.999 72.648 10.115 99.761 27.087 27.087 68.897 30.479 99.67 10.175l529.16-529.16c30.965-30.965 81.167-30.965 112.131 0 30.964 30.963 30.964 81.166 0 112.13l-309.477 309.476a80.791 80.791 0 0 0 1.51-1.47l307.517-307.518c-20.406 30.787-17.045 72.682 10.083 99.81 30.964 30.963 81.166 30.963 112.13 0l829.694-829.695c30.964-30.964 30.964-81.166 0-112.13s-81.166-30.964-112.13 0L1524.428 330.74c20.406-30.787 17.046-72.682-10.082-99.81-30.964-30.963-81.167-30.963-112.13 0l-305.629 305.63c-30.77 20.269-72.55 16.866-99.622-10.206-30.964-30.964-30.964-81.167 0-112.13l86.194-86.195a80.761 80.761 0 0 0-1.808 1.753l-89.19 89.19c20.37-30.782 17-72.647-10.115-99.761-30.963-30.964-81.166-30.964-112.13 0L40.223 1148.904c-30.964 30.964-30.964 81.166 0 112.13s81.166 30.964 112.13 0l89.19-89.19z" id="i"/><filter x="-2.9%" y="-3.1%" width="105.7%" height="108.6%" filterUnits="objectBoundingBox" id="h"><feOffset dy="16" in="SourceAlpha" result="shadowOffsetOuter1"/><feGaussianBlur stdDeviation="16" in="shadowOffsetOuter1" result="shadowBlurOuter1"/><feColorMatrix values="0 0 0 0 0 0 0 0 0 0 0 0 0 0 0 0 0 0 0.08 0" in="shadowBlurOuter1"/></filter><path d="M224.543 2064.844c-20.37 30.782-16.999 72.648 10.115 99.761 27.087 27.087 68.897 30.479 99.67 10.175l529.16-529.16c30.965-30.965 81.167-30.965 112.131 0 30.964 30.963 30.964 81.166 0 112.13l-309.477 309.476a80.791 80.791 0 0 0 1.51-1.47l307.517-307.518c-20.406 30.787-17.045 72.682 10.083 99.81 30.964 30.963 81.166 30.963 112.13 0l829.694-829.695c30.964-30.964 30.964-81.166 0-112.13s-81.166-30.964-112.13 0l-307.518 307.518c20.406-30.787 17.046-72.682-10.082-99.81-30.964-30.963-81.167-30.963-112.13 0l-305.628 305.628c-30.77 20.269-72.55 16.866-99.622-10.206-30.964-30.964-30.964-81.167 0-112.13l86.194-86.195a80.757 80.757 0 0 0-1.808 1.753l-89.19 89.19c20.37-30.782 17-72.647-10.115-99.761-30.963-30.964-81.166-30.964-112.13 0L23.223 2041.904c-30.964 30.964-30.964 81.166 0 112.13s81.166 30.964 112.13 0l89.19-89.19z" id="k"/><filter x="-2.9%" y="-3.1%" width="105.7%" height="108.6%" filterUnits="objectBoundingBox" id="j"><feOffset dy="16" in="SourceAlpha" result="shadowOffsetOuter1"/><feGaussianBlur stdDeviation="16" in="shadowOffsetOuter1" result="shadowBlurOuter1"/><feColorMatrix values="0 0 0 0 0 0 0 0 0 0 0 0 0 0 0 0 0 0 0.08 0" in="shadowBlurOuter1"/></filter><path d="M330.956 1346.03c-20.37 30.782-16.999 72.647 10.115 99.76 27.087 27.088 68.897 30.48 99.67 10.175l529.16-529.16c30.965-30.964 81.167-30.964 112.131 0 30.964 30.963 30.964 81.166 0 112.13l-309.477 309.477a80.791 80.791 0 0 0 1.51-1.47l307.517-307.518c-20.406 30.786-17.045 72.681 10.083 99.809 30.964 30.964 81.166 30.964 112.13 0l829.694-829.694c30.964-30.964 30.964-81.167 0-112.13-30.964-30.965-81.166-30.965-112.13 0l-307.518 307.517c20.406-30.787 17.046-72.681-10.082-99.81-30.964-30.963-81.167-30.963-112.13 0L1186 710.745c-30.77 20.269-72.55 16.867-99.622-10.206-30.964-30.964-30.964-81.166 0-112.13l86.194-86.195a80.742 80.742 0 0 0-1.808 1.753l-89.19 89.19c20.37-30.782 16.999-72.647-10.115-99.76-30.964-30.965-81.166-30.965-112.13 0L129.635 1323.09c-30.964 30.964-30.964 81.167 0 112.13 30.964 30.965 81.166 30.965 112.13 0l89.19-89.19z" id="m"/><filter x="-2.9%" y="-5.6%" width="105.7%" height="108.6%" filterUnits="objectBoundingBox" id="l"><feOffset dy="-16" in="SourceAlpha" result="shadowOffsetOuter1"/><feGaussianBlur stdDeviation="16" in="shadowOffsetOuter1" result="shadowBlurOuter1"/><feColorMatrix values="0 0 0 0 0 0 0 0 0 0 0 0 0 0 0 0 0 0 0.08 0" in="shadowBlurOuter1"/></filter><path d="M1605.898 198.035c25.93-17.133 61.175-14.284 84.006 8.547 26.085 26.085 26.085 68.379 0 94.465l-176.757 176.756c-17.19 25.936-14.36 61.23 8.495 84.085 22.12 22.12 55.897 25.483 81.56 10.086 26.138-25.398 67.915-25.17 93.77.686 26.086 26.086 26.086 68.38 0 94.465l-551.943 551.943c-26.085 26.086-68.379 26.086-94.465 0-26.085-26.086-26.085-68.38 0-94.465l135.469-135.468c-26.242 22.753-66 21.659-90.942-3.283-21.079-21.078-25.125-52.74-12.137-77.882l250.7-250.7c26.085-26.086 26.085-68.379 0-94.465-25.708-25.708-67.158-26.08-93.322-1.117l4.612-4.612c-25.929 17.133-61.175 14.284-84.005-8.547-26.086-26.086-26.086-68.379 0-94.465l434.5-434.5c26.085-26.085 68.379-26.085 94.465 0 26.085 26.086 26.085 68.38 0 94.465l-84.006 84.006z" id="o"/><filter x="-8.2%" y="-3.2%" width="116.3%" height="109%" filterUnits="objectBoundingBox" id="n"><feOffset dy="16" in="SourceAlpha" result="shadowOffsetOuter1"/><feGaussianBlur stdDeviation="16" in="shadowOffsetOuter1" result="shadowBlurOuter1"/><feColorMatrix values="0 0 0 0 0 0 0 0 0 0 0 0 0 0 0 0 0 0 0.1 0" in="shadowBlurOuter1"/></filter></defs><g fill="none" fill-rule="evenodd"><mask id="b" fill="#fff"><use xlink:href="#a"/></mask><g mask="url(#b)"><path fill="#20109A" d="M0 1577l1442-326v1713.33L0 2445.774z"/><path fill="url(#c)" d="M471 175.163L1913 174l-2 1253.648L471 1751z" transform="translate(-471 -174)"/><g transform="translate(-471 -174)"><use fill="#000" filter="url(#d)" xlink:href="#e"/><use fill="#23208E" xlink:href="#e"/></g><path d="M1047.148 212.002c12.767-33.413 5.687-72.673-21.241-99.6-36.535-36.536-95.77-36.536-132.304 0L285.059 720.944c-36.535 36.534-36.535 95.769 0 132.304 33.738 33.738 86.835 36.32 123.536 7.747-9.878 25.852-7.874 55.205 6.01 79.638l-173.204 173.204c-36.535 36.535-36.535 95.77 0 132.304 36.535 36.535 95.77 36.535 132.304 0L982.25 637.6c30.441-30.442 35.518-76.642 15.23-112.34l173.205-173.205c36.535-36.535 36.535-95.77 0-132.304-33.738-33.739-86.834-36.321-123.536-7.748z" fill="#20109A"/><path d="M1566.17 131.75c26.288-10.044 57.176-4.474 78.362 16.712 28.744 28.744 28.744 75.347 0 104.09l-478.773 478.774c-28.744 28.744-75.347 28.744-104.09 0-26.545-26.544-28.576-68.317-6.096-97.192-20.34 7.771-43.433 6.195-62.655-4.73l-136.27 136.27c-28.743 28.744-75.346 28.744-104.09 0s-28.744-75.347 0-104.09L1231.33 182.81c23.95-23.95 60.299-27.944 88.384-11.983l136.27-136.27c28.743-28.743 75.346-28.743 104.09 0 26.544 26.545 28.576 68.318 6.095 97.193z" fill="#2C1AB2"/><g transform="translate(-471 -174)"><use fill="#000" filter="url(#f)" xlink:href="#g"/><use fill="#2C1AB2" xlink:href="#g"/></g><g transform="translate(-471 -174)"><use fill="#000" filter="url(#h)" xlink:href="#i"/><use fill="#4734D7" xlink:href="#i"/></g><path d="M1549.17 1024.75c26.288-10.044 57.176-4.474 78.362 16.712 28.744 28.744 28.744 75.347 0 104.09l-478.773 478.774c-28.744 28.744-75.347 28.744-104.09 0-26.545-26.544-28.576-68.317-6.096-97.192-20.34 7.771-43.433 6.195-62.655-4.73l-136.27 136.27c-28.743 28.744-75.346 28.744-104.09 0s-28.744-75.347 0-104.09l478.773-478.774c23.95-23.95 60.299-27.944 88.384-11.983l136.27-136.27c28.743-28.743 75.346-28.743 104.09 0 26.544 26.545 28.576 68.318 6.095 97.193z" fill="#2C1AB2"/><g transform="translate(-471 -174)"><use fill="#000" filter="url(#j)" xlink:href="#k"/><use fill="#4734D7" xlink:href="#k"/></g></g><g mask="url(#b)"><g transform="scale(-1 1) rotate(11 -9905.018 -9048.327)"><use fill="#000" filter="url(#l)" xlink:href="#m"/><use fill="#3C2ABF" xlink:href="#m"/></g><path fill="#3C2ABF" d="M-.037 2374.714l421.292 184.053 705.831 232.828 312.877 144.927v1454.709H.55z"/></g><g mask="url(#b)"><g transform="translate(-275 3052)"><use fill="#000" filter="url(#n)" xlink:href="#o"/><use fill="#4B35EF" xlink:href="#o"/></g><path d="M560.17 3377.75c26.288-10.044 57.176-4.474 78.362 16.712 28.744 28.744 28.744 75.347 0 104.09l-478.773 478.774c-28.744 28.744-75.347 28.744-104.09 0-26.545-26.544-28.576-68.317-6.096-97.192-20.34 7.771-43.433 6.195-62.655-4.73l-136.27 136.27c-28.743 28.744-75.346 28.744-104.09 0s-28.744-75.347 0-104.09L225.33 3428.81c23.95-23.95 60.299-27.944 88.384-11.983l136.27-136.27c28.743-28.743 75.346-28.743 104.09 0 26.544 26.545 28.576 68.318 6.095 97.193z" fill="#4B35EF"/><path d="M108.92 4014.482c-26.288 10.044-57.176 4.474-78.362-16.712-28.744-28.744-28.744-75.347 0-104.09l478.773-478.774c28.744-28.744 75.347-28.744 104.09 0 26.544 26.544 28.576 68.317 6.096 97.192 20.34-7.771 43.433-6.195 62.655 4.73l136.27-136.27c28.743-28.744 75.346-28.744 104.09 0s28.744 75.347 0 104.09l-478.773 478.774c-23.95 23.95-60.299 27.944-88.384 11.983l-136.27 136.27c-28.744 28.743-75.347 28.743-104.09 0-26.544-26.544-28.576-68.318-6.096-97.193z" fill="#4B35EF"/><path fill="#4B35EF" d="M0 3655.988L928.454 3504l391.172 159.36 122.374 5.569V4942H0z"/></g><g mask="url(#b)"><g transform="translate(279 3497)"><rect fill="#FA4359" transform="rotate(45 38.449 76.449)" x="26.691" y="33.832" width="23.515" height="85.234" rx="11.757"/><rect fill="#37C3BE" transform="rotate(45 1024.449 38.449)" x="1012.691" y="-4.168" width="23.515" height="85.234" rx="11.757"/><rect fill="#FFC107" transform="rotate(45 1057.69 538.449)" x="1045.933" y="495.832" width="23.515" height="85.234" rx="11.757"/></g></g><g mask="url(#b)"><g transform="matrix(-1 0 0 1 1328 2542)"><rect fill="#C83647" transform="rotate(56 111.937 104.937)" x="80.765" y="-8.052" width="62.344" height="225.977" rx="31.172"/><rect fill="#37C3BE" transform="rotate(56 1112.449 34.449)" x="1100.691" y="-8.168" width="23.515" height="85.234" rx="11.757"/></g></g><g mask="url(#b)"><g transform="translate(141 750)"><rect fill="#20109A" transform="rotate(45 755.063 1002.232)" x="723.891" y="889.243" width="62.344" height="225.977" rx="31.172"/><rect fill="#37C3BE" transform="rotate(45 132.449 734.449)" x="120.691" y="691.832" width="23.515" height="85.234" rx="11.757"/><rect fill="#37C3BE" transform="rotate(45 1094.449 265.449)" x="1082.691" y="222.832" width="23.515" height="85.234" rx="11.757"/><rect fill="#4B35EF" transform="rotate(45 1128.42 489.42)" x="1097.248" y="418.175" width="62.344" height="142.489" rx="31.172"/><rect fill="#37C3BE" transform="rotate(45 987.449 1018.449)" x="975.691" y="975.832" width="23.515" height="85.234" rx="11.757"/><rect fill="#3320BD" transform="rotate(45 216.435 1281.693)" x="185.263" y="1210.449" width="62.344" height="142.489" rx="31.172"/><rect fill="#20109A" transform="rotate(45 772.063 102.232)" x="740.891" y="-10.757" width="62.344" height="225.977" rx="31.172"/><rect fill="#FA4359" transform="rotate(45 38.449 383.449)" x="26.691" y="340.832" width="23.515" height="85.234" rx="11.757"/></g></g></g></svg>