<svg width="320" height="226" viewBox="0 0 320 226" xmlns="http://www.w3.org/2000/svg" xmlns:xlink="http://www.w3.org/1999/xlink"><title>BWA Program Card Graphic</title><defs><path id="a" d="M0 0h320v226H0z"/><linearGradient x1="60.938%" y1="60.313%" x2="-5%" y2="19.063%" id="d"><stop stop-opacity="0" offset="0%"/><stop offset="100%"/></linearGradient><path id="c" d="M0 0h320v404H0z"/><path d="M151.1 5.48c5.824-3.854 13.745-3.216 18.874 1.913 5.858 5.858 5.858 15.356 0 21.214l-39.707 39.707c-3.854 5.823-3.216 13.744 1.913 18.873 4.975 4.975 12.576 5.725 18.342 2.25 5.87-5.688 15.24-5.631 21.04.17 5.858 5.857 5.858 15.355 0 21.213L47.607 234.776c-5.858 5.858-15.356 5.858-21.214 0-5.857-5.858-5.857-15.356 0-21.214l30.445-30.444c-5.893 5.13-14.837 4.89-20.445-.717-4.732-4.733-5.641-11.84-2.727-17.486l56.308-56.308c5.858-5.858 5.858-15.356 0-21.214-5.858-5.857-15.355-5.857-21.213 0l-8.79 8.79 10.083-10.082c-5.824 3.854-13.744 3.216-18.874-1.914-5.858-5.858-5.858-15.355 0-21.213l97.58-97.58c5.859-5.858 15.356-5.858 21.214 0 5.858 5.857 5.858 15.355 0 21.213L151.101 5.48z" id="g"/><filter x="-4.5%" y="-1.8%" width="109.1%" height="105%" filterUnits="objectBoundingBox" id="f"><feOffset dy="2" in="SourceAlpha" result="shadowOffsetOuter1"/><feGaussianBlur stdDeviation="2" in="shadowOffsetOuter1" result="shadowBlurOuter1"/><feColorMatrix values="0 0 0 0 0 0 0 0 0 0 0 0 0 0 0 0 0 0 0.1 0" in="shadowBlurOuter1"/></filter><path d="M-20.576 224.171c-4.575 6.913-3.818 16.314 2.271 22.403 6.089 6.09 15.49 6.846 22.403 2.271l118.824-118.824c6.953-6.953 18.227-6.953 25.18 0 6.953 6.954 6.953 18.227 0 25.18l-34.648 34.649 34.525-34.525c-4.575 6.913-3.818 16.314 2.27 22.403 6.954 6.953 18.227 6.953 25.18 0L361.764-8.605c6.953-6.953 6.953-18.227 0-25.18-6.954-6.953-18.227-6.953-25.18 0l-69.05 69.05c4.575-6.913 3.818-16.314-2.271-22.403-6.953-6.954-18.227-6.954-25.18 0l-68.616 68.616c-6.913 4.575-16.315 3.818-22.403-2.271-6.954-6.953-6.954-18.227 0-25.18l9.482-9.483L148 55.09c4.575-6.912 3.818-16.314-2.27-22.403-6.954-6.953-18.228-6.953-25.181 0L-65.785 219.02c-6.953 6.953-6.953 18.227 0 25.18 6.953 6.954 18.227 6.954 25.18 0l20.03-20.029z" id="i"/><filter x="-1.6%" y="-1.7%" width="103.2%" height="104.8%" filterUnits="objectBoundingBox" id="h"><feOffset dy="2" in="SourceAlpha" result="shadowOffsetOuter1"/><feGaussianBlur stdDeviation="2" in="shadowOffsetOuter1" result="shadowBlurOuter1"/><feColorMatrix values="0 0 0 0 0 0 0 0 0 0 0 0 0 0 0 0 0 0 0.08 0" in="shadowBlurOuter1"/></filter><filter x="-94.2%" y="-57.9%" width="278.8%" height="221.1%" filterUnits="objectBoundingBox" id="j"><feOffset dx="-2" dy="2" in="SourceAlpha" result="shadowOffsetOuter1"/><feGaussianBlur stdDeviation="15" in="shadowOffsetOuter1" result="shadowBlurOuter1"/><feColorMatrix values="0 0 0 0 0 0 0 0 0 0 0 0 0 0 0 0 0 0 0.3 0" in="shadowBlurOuter1" result="shadowMatrixOuter1"/><feMerge><feMergeNode in="shadowMatrixOuter1"/><feMergeNode in="SourceGraphic"/></feMerge></filter><path d="M2.4 0h69.83a2.4 2.4 0 0 1 2.4 2.4v47a1 1 0 0 1-1 1H1a1 1 0 0 1-1-1v-47A2.4 2.4 0 0 1 2.4 0z" id="k"/><path d="M1 0h72.63a1 1 0 0 1 1 1v8.6H0V1a1 1 0 0 1 1-1z" id="l"/><rect id="m" x="8.292" y="15.6" width="56.861" height="8.4" rx="1.2"/><rect id="n" x="8.292" y="26.4" width="37.907" height="14.4" rx="1.2"/><rect id="o" x="49.753" y="26.4" width="15.4" height="14.4" rx="1.2"/><path d="M0 9.664V4.228m22 0v5.436c0 2.287-4.925 4.141-11 4.141S0 11.951 0 9.664V4.228" id="p"/><path d="M11 8.283c6.075 0 11-1.854 11-4.141C22 1.854 17.075 0 11 0S0 1.854 0 4.142c0 2.287 4.925 4.141 11 4.141z" id="q"/><path d="M0 9.68V4.235m22 0V9.68c0 2.291-4.925 4.149-11 4.149S0 11.97 0 9.68V4.235" id="r"/><path d="M11 8.297c6.075 0 11-1.857 11-4.148C22 1.857 17.075 0 11 0S0 1.857 0 4.149c0 2.29 4.925 4.148 11 4.148z" id="s"/><path d="M0 9.68V4.235m22 0V9.68c0 2.291-4.925 4.149-11 4.149S0 11.97 0 9.68V4.235" id="t"/><path d="M11 8.297c6.075 0 11-1.857 11-4.148C22 1.857 17.075 0 11 0S0 1.857 0 4.149c0 2.29 4.925 4.148 11 4.148z" id="u"/><filter x="-48.3%" y="-51.2%" width="184.6%" height="221%" filterUnits="objectBoundingBox" id="v"><feOffset dx="-7" dy="7" in="SourceAlpha" result="shadowOffsetOuter1"/><feGaussianBlur stdDeviation="15" in="shadowOffsetOuter1" result="shadowBlurOuter1"/><feColorMatrix values="0 0 0 0 0 0 0 0 0 0 0 0 0 0 0 0 0 0 0.3 0" in="shadowBlurOuter1" result="shadowMatrixOuter1"/><feMerge><feMergeNode in="shadowMatrixOuter1"/><feMergeNode in="SourceGraphic"/></feMerge></filter><path d="M7.087 0H110.08a2.4 2.4 0 0 1 2.4 2.4v73.89H4.687V2.4a2.4 2.4 0 0 1 2.4-2.4z" id="w"/><rect id="x" width="99.244" height="67.237" rx="2.4"/><path d="M2.4 0h94.444a2.4 2.4 0 0 1 2.4 2.4v8.964H0V2.4A2.4 2.4 0 0 1 2.4 0z" id="y"/><rect id="z" x="16" y="18" width="18" height="18" rx="1.2"/><rect id="A" x="38.5" y="18" width="18" height="18" rx="1.2"/><rect id="B" x="61" y="18" width="18" height="18" rx="1.2"/><rect id="C" x="16" y="40" width="18" height="18" rx="1.2"/><rect id="D" x="38.5" y="40" width="18" height="18" rx="1.2"/><rect id="E" x="61" y="40" width="18" height="18" rx="1.2"/></defs><g fill="none" fill-rule="evenodd"><mask id="b" fill="#fff"><use xlink:href="#a"/></mask><use fill="#3320BD" xlink:href="#a"/><g mask="url(#b)"><g transform="translate(0 -4)"><mask id="e" fill="#fff"><use xlink:href="#c"/></mask><use fill="#3320BD" xlink:href="#c"/><use fill-opacity=".2" fill="url(#d)" xlink:href="#c"/><path d="M266.104 47.522c2.869-7.503 1.279-16.321-4.769-22.369-8.204-8.204-21.506-8.204-29.71 0L94.957 161.821c-8.204 8.204-8.204 21.506 0 29.71 7.577 7.577 19.5 8.157 27.743 1.74a21.057 21.057 0 0 0 1.35 17.888l-38.897 38.897c-8.204 8.205-8.204 21.506 0 29.71 8.205 8.205 21.506 8.205 29.71 0L251.532 143.1c6.837-6.837 7.977-17.214 3.419-25.23l38.897-38.897c8.204-8.205 8.204-21.506 0-29.71-7.577-7.577-19.5-8.157-27.743-1.74z" fill="#20109A" mask="url(#e)"/><path d="M360.269 7.376c2.256-5.903 1.006-12.84-3.752-17.599-6.455-6.454-16.92-6.454-23.375 0L225.618 97.301c-6.455 6.455-6.455 16.92 0 23.375 5.961 5.96 15.342 6.417 21.827 1.368a16.57 16.57 0 0 0 1.062 14.074l-30.602 30.602c-6.455 6.455-6.455 16.92 0 23.375 6.455 6.455 16.92 6.455 23.375 0L348.803 82.571c5.38-5.379 6.276-13.542 2.69-19.85l30.602-30.602c6.455-6.455 6.455-16.92 0-23.375-5.96-5.96-15.342-6.417-21.826-1.368z" fill="#20109A" mask="url(#e)" transform="scale(-1 1) rotate(-90 0 389.936)"/><g mask="url(#e)"><use fill="#000" filter="url(#f)" xlink:href="#g"/><use fill="#23208E" xlink:href="#g"/></g><g mask="url(#e)"><use fill="#000" filter="url(#h)" xlink:href="#i"/><use fill="#4734D7" xlink:href="#i"/></g><g mask="url(#e)"><g transform="translate(98 28)" fill="#20109A"><rect transform="rotate(45 137.892 164.892)" x="130.892" y="139.518" width="14" height="50.749" rx="7"/><rect transform="rotate(45 81.9 9.9)" x="74.899" y="2.899" width="14" height="14" rx="7"/></g></g><ellipse stroke="#FFA000" stroke-width="3" stroke-linecap="round" stroke-linejoin="round" stroke-dasharray="1,5" mask="url(#e)" cx="146" cy="144.5" rx="79" ry="28.5"/><g transform="translate(41.885 113.3)" filter="url(#j)"><use fill="#FFF" xlink:href="#k"/><path stroke="#393084" stroke-width="2" d="M2.4 1A1.4 1.4 0 0 0 1 2.4v47h72.63v-47a1.4 1.4 0 0 0-1.4-1.4H2.4z"/><use fill="#71CEF9" xlink:href="#l"/><path stroke="#393084" stroke-width="2" d="M1 8.6h72.63V1H1v7.6z"/><use fill="#D8D8D8" xlink:href="#m"/><rect stroke="#BEBFC1" stroke-width="1.2" x="8.892" y="16.2" width="55.661" height="7.2" rx="1.2"/><use fill="#D8D8D8" xlink:href="#n"/><rect stroke="#BEBFC1" stroke-width="1.2" x="8.892" y="27" width="36.707" height="13.2" rx="1.2"/><use fill="#D8D8D8" xlink:href="#o"/><rect stroke="#BEBFC1" stroke-width="1.2" x="50.353" y="27" width="14.2" height="13.2" rx="1.2"/><circle fill="#311B92" cx="4.738" cy="4.8" r="1.2"/><circle fill="#311B92" cx="8.292" cy="4.8" r="1.2"/></g><g transform="translate(126 109)"><use fill="#37B6EE" xlink:href="#p"/><path stroke="#9F96EA" stroke-width=".81" d="M21.595 4.633H.405v5.03C.405 11.62 5.135 13.4 11 13.4s10.595-1.78 10.595-3.736V4.633z"/></g><g transform="translate(126 109)"><use fill="#4B35EF" xlink:href="#q"/><path stroke="#F1F2F3" stroke-width=".81" d="M11 7.878c5.865 0 10.595-1.78 10.595-3.736 0-1.956-4.73-3.737-10.595-3.737S.405 2.185.405 4.142c0 1.955 4.73 3.736 10.595 3.736z"/></g><g transform="translate(126 101)"><use fill="#37B6EE" xlink:href="#r"/><path stroke="#9F96EA" stroke-width=".81" d="M21.595 4.64H.405v5.04c0 1.96 4.73 3.744 10.595 3.744S21.595 11.64 21.595 9.68V4.64z"/></g><g transform="translate(126 101)"><use fill="#4B35EF" xlink:href="#s"/><path stroke="#F1F2F3" stroke-width=".81" d="M11 7.892c5.865 0 10.595-1.784 10.595-3.743 0-1.96-4.73-3.744-10.595-3.744S.405 2.189.405 4.149c0 1.96 4.73 3.743 10.595 3.743z"/></g><g transform="translate(126 93)"><use fill="#37B6EE" xlink:href="#t"/><path stroke="#9F96EA" stroke-width=".81" d="M21.595 4.64H.405v5.04c0 1.96 4.73 3.744 10.595 3.744S21.595 11.64 21.595 9.68V4.64z"/></g><g transform="translate(126 93)"><use fill="#4B35EF" xlink:href="#u"/><path stroke="#F1F2F3" stroke-width=".81" d="M11 7.892c5.865 0 10.595-1.784 10.595-3.743 0-1.96-4.73-3.744-10.595-3.744S.405 2.189.405 4.149c0 1.96 4.73 3.743 10.595 3.743z"/></g><g filter="url(#v)" transform="translate(166 79)"><use fill="#4B35EF" xlink:href="#w"/><path stroke="#9F96EA" stroke-width="2" d="M5.687 75.29H111.48V2.4a1.4 1.4 0 0 0-1.4-1.4H7.087a1.4 1.4 0 0 0-1.4 1.4v72.89z"/><path d="M1.867 75.349h114.125a1 1 0 0 1 .607 1.795l-4.411 3.364a2.4 2.4 0 0 1-1.456.492H6.64a2.4 2.4 0 0 1-1.563-.579l-3.86-3.313a1 1 0 0 1 .651-1.76z" stroke="#9F96EA" stroke-width="2" fill="#4B35EF"/><g transform="translate(9 4)"><use fill="#FFF" xlink:href="#x"/><rect stroke="#393084" stroke-width="1.2" x=".6" y=".6" width="98.044" height="66.037" rx="2.4"/><use fill="#71CEF9" xlink:href="#y"/><path stroke="#393084" stroke-width="1.2" d="M.6 10.764h98.044V2.4a1.8 1.8 0 0 0-1.8-1.8H2.4A1.8 1.8 0 0 0 .6 2.4v8.364z"/><use fill="#D8D8D8" xlink:href="#z"/><rect stroke="#BEBFC1" stroke-width="1.2" x="16.6" y="18.6" width="16.8" height="16.8" rx="1.2"/><use fill="#D8D8D8" xlink:href="#A"/><rect stroke="#BEBFC1" stroke-width="1.2" x="39.1" y="18.6" width="16.8" height="16.8" rx="1.2"/><use fill="#D8D8D8" xlink:href="#B"/><rect stroke="#BEBFC1" stroke-width="1.2" x="61.6" y="18.6" width="16.8" height="16.8" rx="1.2"/><use fill="#D8D8D8" xlink:href="#C"/><rect stroke="#BEBFC1" stroke-width="1.2" x="16.6" y="40.6" width="16.8" height="16.8" rx="1.2"/><use fill="#D8D8D8" xlink:href="#D"/><rect stroke="#BEBFC1" stroke-width="1.2" x="39.1" y="40.6" width="16.8" height="16.8" rx="1.2"/><use fill="#D8D8D8" xlink:href="#E"/><rect stroke="#BEBFC1" stroke-width="1.2" x="61.6" y="40.6" width="16.8" height="16.8" rx="1.2"/><circle fill="#311B92" cx="4.681" cy="5.682" r="1.2"/><circle fill="#311B92" cx="8.426" cy="5.682" r="1.2"/></g></g></g></g></g></svg>